<svg width="320" height="110" viewBox="0 0 320 110" fill="none" xmlns="http://www.w3.org/2000/svg">
  <rect width="320" height="110" rx="24" fill="#0F3D68"/>
  <path d="M72 28c4.8 0 12-6.4 12-10.6C84 13.3 70.8 8 64 8s-20 5.3-20 9.4C44 21.6 51.2 28 56 28h16Z" fill="#0F3D68"/>
  <path d="M64 32c18.2 0 33 12.3 33 27.4 0 13-7.6 24.3-18.9 27.5-3.3.9-6.2 4.6-7.5 8.1-1.5 3.9-5.4 6.5-9.7 6.5h-3.7c-4.3 0-8.2-2.6-9.7-6.5-1.3-3.5-4.2-7.2-7.5-8.1C38.6 83.7 31 72.4 31 59.4 31 44.3 45.8 32 64 32Z" fill="white" fill-opacity=".12"/>
  <rect x="95" y="40" width="210" height="50" rx="12" fill="white" fill-opacity=".1"/>
  <text x="95" y="66" fill="white" font-size="32" font-weight="600" font-family="Inter, sans-serif">Hoo$ Funding?</text>
  <text x="95" y="86" fill="#9EC6EA" font-size="14" font-family="Inter, sans-serif">UVa Department Resources</text>
  <path d="M64 55c-5.5 0-10 3.2-10 7.2 0 3.7 3.8 6.7 8.7 7.2v5.2c0 1.9 1.8 3.4 4 3.4s4-1.5 4-3.4v-4.8c5-.4 9-3.5 9-7.4 0-4-4.5-7.2-10-7.2Zm-2.2 9.7c-2.2-.3-3.8-1.5-3.8-2.9 0-1.6 2-3 4.5-3s4.5 1.3 4.5 3c0 1.3-1.6 2.5-3.7 2.9l-.8.1v4.6l-.7-.1c-.3 0-.7-.2-.7-.4v-4.2l-.8-.1Z" fill="white"/>
</svg>

